<?xml version="1.0" encoding="utf-8"?>

<!DOCTYPE svg PUBLIC "-//W3C//DTD SVG 1.1//EN" "http://www.w3.org/Graphics/SVG/1.1/DTD/svg11.dtd">
<!-- Uploaded to: SVG Repo, www.svgrepo.com, Generator: SVG Repo Mixer Tools -->
<svg height="800px" width="800px" version="1.1" id="_x32_" xmlns="http://www.w3.org/2000/svg" xmlns:xlink="http://www.w3.org/1999/xlink" 
	 viewBox="0 0 512 512"  xml:space="preserve">
<style type="text/css">
	.st0{fill:#000000;}
</style>
<g>
	<path class="st0" d="M458.071,306.273l-9.519-21.579l-65.885,29.07l-43.103-24.899l74.607-32.879l-74.589-32.87l43.085-24.863
		l65.885,29.07l9.536-21.624l-50.088-22.103l76.363-44.053l-13.318-23.044l-76.362,44.08l5.917-54.422l-23.47-2.561l-7.782,71.576
		l-43.085,24.89l8.83-81.022l-65.777,48.152V117.43l58.123-42.542l-13.934-19.055l-44.19,32.354V0h-26.6v88.187l-44.17-32.354
		l-13.952,19.055l58.122,42.542v49.762l-65.777-48.134l8.795,80.995l-43.049-24.882l-7.799-71.576l-23.47,2.561l5.916,54.422
		l-76.344-44.08l-13.318,23.044l76.363,44.053l-50.088,22.103l9.519,21.624l65.867-29.07l43.122,24.863l-74.59,32.888l24.501,10.803
		l50.089,22.076l-43.104,24.882l-65.885-29.07l-9.536,21.579l50.106,22.112l-76.399,44.099l13.354,23.054l76.363-44.098
		l-5.935,54.412l23.47,2.551l7.781-71.594l43.068-24.863l-8.813,81.013l65.794-48.151v49.771l-58.122,42.525l13.952,19.036
		l44.17-32.328V512h26.6v-88.188l44.19,32.328l13.934-19.036l-58.123-42.542v-49.736l65.777,48.143l-8.812-81.022l43.067,24.863
		l7.818,71.594l23.434-2.551l-5.9-54.412l76.345,44.098l13.318-23.054l-76.381-44.099L458.071,306.273z M156.385,256.004
		l41.366-18.24l31.631,18.24l-31.612,18.268L156.385,256.004z M242.718,315.556l-36.534,26.727l4.904-44.958l31.63-18.267V315.556z
		 M242.718,232.942l-31.63-18.25l-4.904-44.967l36.534,26.718V232.942z M269.318,196.443l36.535-26.718l-4.922,44.967l-31.613,18.25
		V196.443z M269.318,315.556v-36.498l31.613,18.267l4.922,44.958L269.318,315.556z M314.248,274.272l-31.612-18.268l31.631-18.24
		l41.384,18.24L314.248,274.272z"/>
</g>
</svg>